# xmcd CD database file
#
# Track frame offsets:
#	150
#	27225
#	48525
#
# Disc length: 926 seconds
#
# Revision: 0
# Processed by: cddbd v1.5.1PL2 Copyright (c) Steve Scherf et al.
# Submitted via: CDex 1.60beta1
#
DISCID=1f039c03
DTITLE=SWORD OF JUSTICE - For The Love Of... - GameMusic Arrange Album Roots - Preview Disc -
DYEAR=2005
DGENRE=Game
TTITLE0=平松俊紀/For The Love Of... - 武者アレスタより -
TTITLE1=平松俊紀/Main Table - Devil Crashより -
TTITLE2=平松俊紀/Roots - Crossfade Demo -
EXTD=YEAR: 2005
EXTT0=
EXTT1=
EXTT2=
PLAYORDER=
